<svg enable-background="new 0 0 24 24" viewBox="0 0 24 24" xmlns="http://www.w3.org/2000/svg"><path d="m12.3 12.8c-.2-.1-.4-.2-.7-.2h-.6v3.1h.6c.2 0 .4 0 .5-.1.2-.1.3-.2.4-.3s.2-.3.2-.5.1-.4.1-.7 0-.6-.1-.9c-.1-.1-.2-.3-.4-.4z"/><path d="m23.7 5.7-5.4-5.4c-.2-.2-.4-.3-.7-.3h-11.6c-1.1 0-2 .9-2 2v5.8c0 .1.1.2.2.2h1.5c.2 0 .3-.1.3-.2v-5.3c0-.3.2-.5.5-.5h10.2c.2 0 .3.1.3.2v2.8c0 1.1.9 2 2 2h2.8c.1 0 .2.1.2.2v1.5c0 .2-.1.3-.2.3h-20.6c-.6 0-1.1.4-1.2 1v9c.1.6.6 1 1.2 1h20.5c.1 0 .2.1.2.2v1.2c0 .3-.2.5-.5.5h-15.2c-.1.1-.2 0-.2-.1v-.5c0-.2-.1-.3-.2-.3h-1.6c-.1 0-.2.1-.2.2v.8c0 1.1.9 2 2 2h16c1.1 0 2-.9 2-2v-15.6c0-.3-.1-.5-.3-.7zm-14.9 8.5c-.1.3-.3.5-.6.6-.3.2-.6.2-1 .2h-.9v1.5h-1.2v-5h2.1c.4 0 .7.1 1 .2s.4.4.6.6c.1.5.2.8.2 1.1s-.1.6-.2.8zm5 1.2c-.2.4-.4.7-.7.9s-.7.3-1.3.3h-1.9v-5h1.9c.5 0 .9.1 1.3.3.3.2.6.5.7.8.2.4.2.8.2 1.3.1.6 0 1.1-.2 1.4zm4.6-2.8h-2.1v1.2h1.9v.9h-1.9v1.9h-1.2v-5h3.3z"/><path d="m7 12.6h-.7v1.6h.7c.2 0 .3 0 .4-.1s.2-.2.3-.3.1-.3.1-.4c0-.3-.1-.5-.2-.6s-.4-.2-.6-.2z"/></svg>