<svg enable-background="new 0 0 24 24" viewBox="0 0 24 24" xmlns="http://www.w3.org/2000/svg"><path d="m23.7 5.7-5.4-5.4c-.2-.2-.4-.3-.7-.3h-11.6c-1.1 0-2 .9-2 2v5.8c0 .1.1.2.2.2h1.5c.2 0 .3-.1.3-.2v-5.3c0-.3.2-.5.5-.5h10.2c.2 0 .3.1.3.2v2.8c0 1.1.9 2 2 2h2.8c.1 0 .2.1.2.2v1.5c0 .2-.1.3-.2.3h-20.6c-.6 0-1.1.4-1.2 1v9c.1.6.6 1 1.2 1h20.5c.1 0 .2.1.2.2v1.2c0 .3-.2.5-.5.5h-15.2c-.1.1-.2 0-.2-.1v-.5c0-.2-.1-.3-.2-.3h-1.6c-.1 0-.2.1-.2.2v.8c0 1.1.9 2 2 2h16c1.1 0 2-.9 2-2v-15.6c0-.3-.1-.5-.3-.7zm-17.3 10.9h-1.2v-2h-1.9v2h-1.2v-5h1.2v2h1.8v-2h1.2v5zm4.7-4h-1.3v4h-1.2v-4h-1.4v-1h3.9zm5.9 4h-1.1v-3.1h-.1l-1 2.3h-.7l-1.1-2.3v3.1h-1v-5h1.2l1.3 2.8 1.3-2.8h1.2zm4.5 0h-3.2v-5h1.2v4h2z"/></svg>