<svg enable-background="new 0 0 24 24" viewBox="0 0 24 24" xmlns="http://www.w3.org/2000/svg"><path d="m16.6 13.6c.1 0 .2-.1.3-.2s.1-.2.1-.3c0-.2-.1-.3-.2-.4s-.3-.2-.5-.2h-.7v1.2h.6c.1 0 .2-.1.4-.1z"/><path d="m16.7 14.5c-.1-.1-.3-.1-.4-.1h-.8v1.3h.6c.3 0 .6-.1.7-.2s.2-.3.2-.5c0-.1 0-.3-.1-.4 0 .1 0-0-.2-.1z"/><path d="m11.6 12.7c-.1-.1-.3-.1-.5-.1s-.4 0-.5.1-.3.2-.3.4c-.1.2-.1.4-.1.7v.6c0 .3 0 .5.1.7s.2.3.3.4.3.1.5.1.4 0 .5-.1.3-.2.3-.4.1-.4.1-.7v-.6c0-.3 0-.5-.1-.7s-.2-.3-.3-.4z"/><path d="m23.7 5.7-5.4-5.4c-.2-.2-.4-.3-.7-.3h-11.6c-1.1 0-2 .9-2 2v5.8c0 .1.1.2.2.2h1.5c.2 0 .3-.1.3-.2v-5.3c0-.3.2-.5.5-.5h10.2c.2 0 .3.1.3.2v2.8c0 1.1.9 2 2 2h2.8c.1 0 .2.1.2.2v1.5c0 .2-.1.3-.2.3h-20.6c-.6 0-1.1.4-1.2 1v9c.1.6.6 1 1.2 1h20.5c.1 0 .2.1.2.2v1.2c0 .3-.2.5-.5.5h-15.2c-.1.1-.2 0-.2-.1v-.5c0-.2-.1-.3-.2-.3h-1.6c-.1 0-.2.1-.2.2v.8c0 1.1.9 2 2 2h16c1.1 0 2-.9 2-2v-15.6c0-.3-.1-.5-.3-.7zm-15.9 10.9h-1.1v-3.1h-.1l-1 2.3h-.7l-1.1-2.3v3.1h-1.1v-5h1.3l1.3 2.8 1.3-2.8h1.2zm5.5-2.2c0 .5-.1.9-.3 1.2s-.4.6-.8.8c-.3.2-.7.3-1.2.3s-.9-.1-1.2-.3-.6-.4-.8-.8-.3-.7-.3-1.2v-.6c0-.5.1-.9.3-1.2s.4-.6.8-.8c.3-.2.7-.3 1.2-.3s.9.1 1.2.3.6.4.8.8.3.7.3 1.2zm4.8 1.6c-.2.2-.4.4-.6.5s-.6.2-.9.2h-2.2v-5h2.2c.5 0 .8.1 1.1.3s.4.5.4.9c0 .2 0 .4-.1.5-.1.2-.2.3-.3.4s-.3.2-.4.2c.2 0 .4.1.5.2.2.1.3.2.4.4s.2.4.2.6c-.1.3-.2.6-.3.8zm2.4.6h-1.2v-5h1.2z"/></svg>