<svg viewBox="0 0 20 24" xmlns="http://www.w3.org/2000/svg"><path d="m13.3 12.6h-8.9c-.4 0-.9.3-.9.9s.4.9.9.9h8.9c.4 0 .9-.3.9-.9s-.3-.9-.9-.9z"/><path d="m14.2 16.7c0-.5-.3-.9-.9-.9h-8.9c-.4 0-.9.3-.9.9s.4.9.9.9h8.9c.4 0 .9-.3.9-.9z"/><path d="m4.4 18.9c-.4 0-.9.3-.9.9s.4.9.9.9h7.2c.4 0 .9-.3.9-.9s-.3-.9-.9-.9z"/><path d="m4.4 9.5c-.4 0-.9.3-.9.9s.4.9.9.9h6.3c.4 0 .8-.3.8-.7-.5-.3-.9-.6-1.2-1h-5.9z"/><path d="m4.4 6.3c-.4 0-.9.3-.9.9s.4.9.9.9h4.5.3c-.3-.5-.5-1.1-.6-1.7h-4.3z"/><path d="m15.8 21.7c0 .3-.2.4-.4.4h-13.5-.2v-16.9c0-.3.2-.4.4-.4h6.3c0-.6.1-1.2.3-1.8h-6.9c-1 0-1.8.8-1.8 1.8v17.5c0 1 .8 1.8 1.8 1.8h14c.9 0 1.6-.6 1.8-1.4v-11.6c-.5.2-1.1.4-1.8.5v10.3z"/><path d="m15 0c-2.8 0-5 2.2-5 5s2.2 5 5 5 5-2.2 5-5-2.2-5-5-5zm1.9 5.6h-1.2c-.1 0-.2 0-.2.2v1.2c0 .3-.3.6-.6.6s-.6-.3-.6-.6v-1.2c0-.1 0-.2-.2-.2h-1.2c-.3 0-.6-.3-.6-.6s.3-.6.6-.6h1.2c.1 0 .2 0 .2-.2v-1.2c0-.3.3-.6.6-.6s.6.3.6.6v1.2c0 .1 0 .2.2.2h1.2c.3 0 .6.3.6.6s-.3.6-.6.6z"/></svg>