<svg viewBox="0 0 20 24" xmlns="http://www.w3.org/2000/svg"><path d="m15 11.5c-3.6 0-6.5-2.9-6.5-6.5s0-.2 0-.2h-6.3c-.3 0-.4.2-.4.4v16.9s0 .2.2 0h13.4c.3 0 .4-.2.4-.4v-10.3c-.2 0-.5 0-.8 0z" opacity=".3"/><path d="m4.3 13.5c0 .4.3.9.9.9h7.2c.4 0 .9-.4.9-.9s-.3-.9-.9-.9h-7.2c-.4 0-.9.4-.9.9z"/><path d="m15.8 21.7c0 .3-.2.4-.4.4h-13.5-.2v-16.9c0-.3.2-.4.4-.4h6.3c0-.6.1-1.2.3-1.8h-6.9c-1 0-1.8.8-1.8 1.8v17.5c0 1 .8 1.8 1.8 1.8h14c.9 0 1.6-.6 1.8-1.4v-11.6c-.5.2-1.1.4-1.8.5v10.3z"/><path d="m15 0c-2.8 0-5 2.2-5 5s2.2 5 5 5 5-2.2 5-5-2.2-5-5-5zm1.9 5.6h-1.2c-.1 0-.2 0-.2.2v1.2c0 .3-.3.6-.6.6s-.6-.3-.6-.6v-1.2c0-.1 0-.2-.2-.2h-1.2c-.3 0-.6-.3-.6-.6s.3-.6.6-.6h1.2c.1 0 .2 0 .2-.2v-1.2c0-.3.3-.6.6-.6s.6.3.6.6v1.2c0 .1 0 .2.2.2h1.2c.3 0 .6.3.6.6s-.3.6-.6.6z"/></svg>